<?xml version="1.0" standalone="no"?>
<!DOCTYPE svg PUBLIC "-//W3C//DTD SVG 20010904//EN"
 "http://www.w3.org/TR/2001/REC-SVG-20010904/DTD/svg10.dtd">
<svg version="1.0" xmlns="http://www.w3.org/2000/svg"
 width="586.000000pt" height="586.000000pt" viewBox="0 0 586.000000 586.000000"
 preserveAspectRatio="xMidYMid meet">
<metadata>
Created by potrace 1.14, written by Peter Selinger 2001-2017
</metadata>
<g transform="translate(0.000000,586.000000) scale(0.100000,-0.100000)"
fill="#000000" stroke="none">
<path d="M2920 5069 c-41 -4 -97 -14 -125 -23 -72 -23 -196 -94 -247 -141 -82
-74 -162 -191 -175 -255 -23 -112 -34 -276 -24 -361 9 -75 6 -82 -30 -60 -39
24 -64 17 -80 -21 -12 -29 -15 -131 -4 -178 3 -14 8 -41 11 -60 3 -19 10 -39
15 -45 5 -5 9 -16 9 -25 0 -15 57 -60 78 -60 19 0 24 -20 29 -114 3 -63 12
-112 29 -161 14 -38 28 -77 31 -87 3 -10 -16 -45 -50 -90 -30 -40 -61 -92 -68
-116 -7 -23 -19 -47 -26 -54 -15 -12 -415 -174 -625 -253 -157 -59 -186 -75
-257 -140 -81 -75 -160 -235 -132 -269 6 -7 58 -36 116 -65 57 -28 108 -58
112 -65 5 -6 24 -19 43 -26 19 -8 47 -25 62 -39 l27 -24 -23 -18 c-16 -12 -38
-18 -64 -17 -40 1 -58 -9 -79 -46 -10 -18 -4 -25 51 -60 33 -21 64 -43 67 -48
3 -6 8 -9 10 -7 2 1 23 -10 46 -24 24 -15 45 -27 48 -27 10 0 170 -104 173
-112 2 -5 8 -8 13 -8 17 0 171 -110 223 -160 28 -27 62 -58 76 -70 153 -131
318 -281 371 -337 20 -21 56 -55 80 -76 24 -21 71 -61 105 -90 34 -28 71 -67
84 -84 12 -18 28 -33 35 -33 7 0 25 -10 39 -21 22 -18 41 -22 98 -22 l71 1 77
-69 c43 -38 81 -64 86 -59 5 4 20 10 34 12 21 3 25 9 27 43 5 62 8 66 39 50
15 -7 41 -30 58 -49 17 -19 43 -38 57 -41 24 -6 25 -4 23 27 -1 18 -9 46 -17
62 -9 17 -13 35 -8 40 5 6 11 23 15 38 4 17 18 34 37 44 29 15 32 14 65 -8 19
-13 34 -29 34 -37 0 -10 8 -12 30 -8 16 4 32 2 35 -3 4 -6 25 -20 47 -31 22
-11 50 -30 62 -41 12 -10 43 -31 71 -44 46 -24 50 -24 62 -8 7 10 13 24 13 32
0 12 3 12 15 2 8 -7 15 -24 15 -39 0 -14 10 -46 21 -71 21 -48 95 -130 116
-130 7 0 13 -3 13 -8 0 -4 9 -13 21 -20 16 -10 24 -11 35 -1 8 6 17 9 21 6 3
-4 -2 -9 -11 -13 -22 -9 -20 -21 7 -35 17 -9 20 -9 10 1 -9 10 -7 17 6 32 24
25 62 19 97 -15 15 -15 37 -27 50 -27 12 0 26 -4 29 -10 9 -15 35 -12 35 5 0
8 -6 12 -14 9 -16 -6 -53 42 -42 53 3 4 24 -3 46 -15 46 -24 50 -21 15 14 -14
14 -25 29 -25 34 0 6 -9 19 -19 29 -29 29 -31 111 -2 111 5 0 28 -15 52 -34
41 -31 99 -46 99 -25 0 5 9 9 20 9 22 0 51 -56 54 -102 0 -16 5 -23 10 -18 9
9 -11 96 -26 115 -5 6 -19 27 -33 47 -13 21 -33 50 -45 65 -15 22 -21 48 -24
113 -3 47 -12 103 -21 125 -38 89 -57 131 -70 156 -7 14 -15 36 -17 50 -2 13
-12 38 -21 55 -10 20 -16 55 -16 95 0 68 -22 195 -42 244 -17 44 -20 225 -4
225 20 0 85 -81 85 -106 0 -34 154 -164 195 -164 14 0 16 6 10 38 -3 20 -10
41 -15 45 -8 9 6 74 20 92 4 6 6 17 4 25 -1 8 -10 51 -19 95 -61 303 -95 408
-173 540 -31 53 -98 142 -127 170 -28 27 -487 255 -513 255 -5 0 -33 12 -63
26 -30 15 -77 37 -106 50 -85 37 -121 72 -165 159 -22 44 -51 93 -63 110 l-23
30 22 55 c12 30 31 82 40 115 39 132 43 140 76 141 49 2 62 19 111 149 21 56
34 153 25 189 -7 30 -41 43 -63 24 -9 -7 -19 -12 -22 -11 -10 3 -18 38 -11 48
17 23 44 209 46 326 4 208 -33 290 -215 466 -46 45 -81 66 -186 114 -49 22
-143 34 -215 28z"/>
</g>
</svg>
